# xmcd
# Track frame offsets:
# 150
# 13421
# 28438
# 45776
# 61198
# 78021
# 98743
# 114853
# 131605
# 148265
#
# Disc length: 2163 seconds
# Revision: 0
# Processed by: cddbd v1.4PL0 Copyright (c) Steve Scherf et al.
# Submitted via: VisiTrax 2.9.5.181 - For more info visit www.synapsa.com
#
DISCID=7c08710a
DTITLE=Danni Leigh - Divide and Conquer
DYEAR=1900
DGENRE=
TTITLE0=He Used To Say That To Me
TTITLE1=My Last Chance Is Gone
TTITLE2=Somebody Oughta Do Something
TTITLE3=House Of Pain
TTITLE4=A Far Cry From Here
TTITLE5=Don't Feel Like Crying
TTITLE6=Yesterday
TTITLE7=Sometimes
TTITLE8=Last train To San Antone
TTITLE9=Divide And Conquer
EXTD=
EXTT0=
EXTT1=
EXTT2=
EXTT3=
EXTT4=
EXTT5=
EXTT6=
EXTT7=
EXTT8=
EXTT9=
PLAYORDER=
